<svg width="76" height="89" viewBox="0 0 76 89" fill="none" xmlns="http://www.w3.org/2000/svg">
<circle cx="69.0909" cy="6.90915" r="6.90909" transform="rotate(180 69.0909 6.90915)" fill="#FFFF00" fill-opacity="0.1"/>
<circle cx="48.3636" cy="31.7819" r="6.90909" transform="rotate(180 48.3636 31.7819)" fill="#FFFF00" fill-opacity="0.5"/>
<circle cx="48.3636" cy="6.90915" r="6.90909" transform="rotate(180 48.3636 6.90915)" fill="#FFFF00" fill-opacity="0.5"/>
<circle cx="27.6363" cy="56.6546" r="6.90909" transform="rotate(180 27.6363 56.6546)" fill="#FFFF00" fill-opacity="0.8"/>
<circle cx="27.6363" cy="31.7818" r="6.90909" transform="rotate(180 27.6363 31.7818)" fill="#FFFF00" fill-opacity="0.8"/>
<circle cx="27.6363" cy="6.90915" r="6.90909" transform="rotate(180 27.6363 6.90915)" fill="#FFFF00" fill-opacity="0.8"/>
<circle cx="6.90902" cy="81.5273" r="6.90909" transform="rotate(180 6.90902 81.5273)" fill="#FFFF00"/>
<circle cx="6.90902" cy="56.6546" r="6.90909" transform="rotate(180 6.90902 56.6546)" fill="#FFFF00"/>
<circle cx="6.90902" cy="31.7818" r="6.90909" transform="rotate(180 6.90902 31.7818)" fill="#FFFF00"/>
<circle cx="6.90902" cy="6.90915" r="6.90909" transform="rotate(180 6.90902 6.90915)" fill="#FFFF00"/>
</svg>
