<svg width="48" height="48" viewBox="0 0 48 48" fill="none" xmlns="http://www.w3.org/2000/svg">
<path d="M44 24C44 35.045 35.045 44 24 44C12.955 44 4 35.045 4 24C4 12.955 12.955 4 24 4C35.045 4 44 12.955 44 24Z" fill="#003142"/>
<path d="M33.5001 28.102C32.8981 34.5 27.8981 36.2 24.1991 36.2C21.1011 36.2 14.6011 34.602 14.6011 25.001V23.501C14.6011 14.802 20.1011 12.302 24.3001 12.302C32.8001 12.302 33.4991 19.302 33.6011 20.501H28.8001C28.4991 16.899 26.6011 16.2 24.3001 16.2C22.6981 16.2 19.4991 16.7 19.4991 23.399V25C19.3971 32.5 23.3001 32.199 24.1981 32.199C28.4991 32.199 28.4991 29.301 28.8001 28.101L33.5001 28.102Z" fill="#FFFF00"/>
</svg>
